<svg viewBox="0 0 97 24" fill="none" xmlns="http://www.w3.org/2000/svg" height="24"><path d="M4.977 11.041c-.705 0-1.34-.108-1.906-.322a4.135 4.135 0 01-1.447-.904 3.915 3.915 0 01-.919-1.419C.491 7.84.383 7.213.383 6.518V0H2.68v6.517c0 .736.21 1.317.628 1.74.418.425.975.637 1.669.637.694 0 1.25-.212 1.669-.636.418-.424.628-1.005.628-1.741V0H9.57v6.517c0 .695-.108 1.322-.322 1.878a3.895 3.895 0 01-.92 1.418c-.397.389-.88.69-1.446.904-.567.215-1.203.323-1.908.323l.002.001zM11.485 0h2.296v8.588h5.285v2.147h-7.581V0zM17.994 2.147h3.445v8.588h2.296V2.147h3.447V0h-9.188v2.147zM28.59 0h2.298v10.735H28.59V0zM36.326 0H32.88v10.735h2.297V3.91l-.153-1.38h.153l2.45 5.752h2.986l2.45-5.751h.152l-.153 1.38v6.824h2.297V0h-3.446l-2.603 6.135h-.383L36.326 0z" fill="#FFFFFF"></path><path fill-rule="evenodd" clip-rule="evenodd" d="M54.011 0l2.833 10.735H54.47l-.613-2.377h-4.518l-.613 2.377H46.35L49.184 0h4.828zm-.688 6.21L52.25 2.148h-1.303l-1.072 4.064h3.447z" fill="#FFFFFF"></path><path d="M56.461 2.147h3.445v8.588h2.297V2.147h3.446V0H56.46v2.147zM66.8 0h8.04v2.147h-5.744v2.147h4.594v1.994h-4.594v2.3h5.743v2.147H66.8V0zM3.522 23.562a6.303 6.303 0 002.374.436l.003.002a5.94 5.94 0 001.53-.184c.461-.122.875-.283 1.242-.483s.689-.429.964-.69c.275-.261.515-.524.72-.79.48-.634.83-1.35 1.055-2.147H9.036a3.346 3.346 0 01-.628 1.073c-.235.267-.555.513-.957.737-.404.224-.923.337-1.555.337-.52 0-.993-.08-1.417-.245a3.041 3.041 0 01-1.088-.706 3.125 3.125 0 01-.697-1.112 4.24 4.24 0 01-.244-1.465c0-.523.087-.998.26-1.427.174-.43.414-.8.72-1.112.307-.311.67-.555 1.088-.729a3.55 3.55 0 011.378-.26c.612 0 1.115.1 1.508.305s.707.424.942.66c.265.275.47.593.613.95h2.374a5.71 5.71 0 00-.995-2.024 4.978 4.978 0 00-1.647-1.394 5.512 5.512 0 00-1.24-.468 6.423 6.423 0 00-1.555-.175 6.3 6.3 0 00-2.374.437 5.68 5.68 0 00-1.869 1.196 5.414 5.414 0 00-1.217 1.794A5.718 5.718 0 000 18.325c0 .807.145 1.557.436 2.247.29.69.697 1.288 1.217 1.794a5.712 5.712 0 001.869 1.196zM12.71 12.957h2.298v4.216h4.746v-4.216h2.297v10.735h-2.297V19.32h-4.746v4.372H12.71V12.957z" fill="#FFFFFF"></path><path fill-rule="evenodd" clip-rule="evenodd" d="M30.78 12.957h-4.827L23.12 23.692h2.374l.613-2.378h4.518l.613 2.378h2.375L30.78 12.957zm-1.761 2.147l1.072 4.063h-3.446l1.072-4.063h1.302z" fill="#FFFFFF"></path><path d="M34.688 12.957h3.445l2.602 6.134h.383l2.603-6.134h3.446v10.735H44.87v-6.825l.153-1.38h-.153l-2.45 5.751h-2.985l-2.45-5.75h-.153l.153 1.38v6.824h-2.297V12.957z" fill="#FFFFFF"></path><path fill-rule="evenodd" clip-rule="evenodd" d="M54.058 12.957h-4.977v10.735h2.297v-3.22h2.68c.654 0 1.243-.1 1.769-.299a4.24 4.24 0 001.347-.806c.374-.337.662-.733.866-1.188.203-.456.306-.943.306-1.465a3.53 3.53 0 00-1.172-2.653 4.203 4.203 0 00-1.347-.805 4.95 4.95 0 00-1.769-.3zm1.409 4.908c-.337.306-.833.46-1.486.46h-2.603v-3.221h2.603c.653 0 1.15.153 1.486.459.336.308.505.69.505 1.15 0 .462-.17.846-.505 1.152z" fill="#FFFFFF"></path><path d="M59.8 12.957h2.298v10.735H59.8V12.957z" fill="#FFFFFF"></path><path fill-rule="evenodd" clip-rule="evenodd" d="M67.18 23.553a6.052 6.052 0 002.344.445 6.07 6.07 0 002.336-.445 5.94 5.94 0 001.875-1.212 5.465 5.465 0 001.241-1.802c.296-.69.444-1.428.444-2.216 0-.789-.148-1.527-.444-2.217a5.465 5.465 0 00-1.24-1.802 6.029 6.029 0 00-4.21-1.657c-.85 0-1.63.149-2.345.445a5.966 5.966 0 00-1.869 1.212 5.466 5.466 0 00-1.24 1.802 5.558 5.558 0 00-.445 2.217c0 .788.148 1.526.444 2.216.296.69.71 1.291 1.241 1.802a5.938 5.938 0 001.869 1.212zm3.722-1.963a3.55 3.55 0 01-1.378.261c-.499 0-.959-.087-1.377-.261a3.23 3.23 0 01-1.089-.729 3.398 3.398 0 01-.719-1.112 3.77 3.77 0 01-.26-1.426c0-.523.086-.998.26-1.427.174-.43.414-.8.72-1.112.307-.311.67-.555 1.088-.729a3.556 3.556 0 011.377-.26c.5 0 .96.086 1.378.26a3.27 3.27 0 011.088.729c.306.313.546.683.72 1.112.174.43.26.904.26 1.427 0 .522-.086.997-.26 1.426a3.262 3.262 0 01-1.808 1.84z" fill="#FFFFFF"></path><path d="M76.57 12.957h2.986l4.21 7.592h.153l-.153-1.304v-6.288h2.297v10.735h-2.986l-4.21-7.592h-.153l.153 1.304v6.288H76.57V12.957zM90.412 23.837c.418.108.893.161 1.424.161v-.003c.715 0 1.346-.092 1.892-.276.545-.185 1.002-.43 1.37-.736a2.96 2.96 0 00.827-1.074c.183-.408.275-.838.275-1.288 0-.49-.092-.906-.275-1.249a2.747 2.747 0 00-.72-.867 4.032 4.032 0 00-1.019-.584 12.225 12.225 0 00-1.163-.398c-.393-.111-.781-.214-1.164-.306a7.527 7.527 0 01-1.019-.314 2.426 2.426 0 01-.72-.423.79.79 0 01-.275-.614c0-.308.14-.575.422-.806.28-.23.726-.345 1.34-.345.458 0 .823.065 1.094.192.27.129.476.27.62.422.173.186.29.39.352.614h2.374a4.363 4.363 0 00-.736-1.64 4.37 4.37 0 00-.558-.606 3.561 3.561 0 00-.78-.53 4.875 4.875 0 00-1.034-.375 5.532 5.532 0 00-1.333-.145c-.653 0-1.236.09-1.746.27-.51.178-.942.418-1.294.72a3.143 3.143 0 00-.812 1.05 2.906 2.906 0 00-.283 1.258c0 .655.155 1.178.467 1.572a3.5 3.5 0 001.18.95c.475.24.985.43 1.53.568.546.139 1.056.276 1.531.414.475.139.868.3 1.18.484.31.184.467.44.467.767 0 .347-.151.639-.452.874-.301.235-.815.353-1.54.353-.52 0-.94-.082-1.263-.245-.32-.165-.568-.348-.742-.553a2.176 2.176 0 01-.444-.813H87.01c.153.686.43 1.3.827 1.841.164.236.366.463.605.682.24.221.523.414.85.584.327.169.7.306 1.119.414z" fill="#FFFFFF"></path></svg>